<svg xmlns="http://www.w3.org/2000/svg" xmlns:xlink="http://www.w3.org/1999/xlink" width="136.563" height="25.905" viewBox="0 0 136.563 25.905">
  <defs>
    <clipPath id="clip-path">
      <rect id="Rectangle_450" data-name="Rectangle 450" width="136.563" height="25.905" fill="none"/>
    </clipPath>
  </defs>
  <g id="Group_756" data-name="Group 756" transform="translate(0 0)">
    <g id="Group_744" data-name="Group 744" transform="translate(0 0)" clip-path="url(#clip-path)">
      <text id="equalsense" transform="translate(15.746 18.086)" fill="#fff" font-size="20" font-family="Quicksand-Bold, Quicksand" font-weight="700"><tspan x="0" y="0">equalsense</tspan></text>
      <path id="Path_237" data-name="Path 237" d="M5.944,19.956A2.935,2.935,0,1,1,3.008,17.02a2.936,2.936,0,0,1,2.936,2.936" transform="translate(-0.043 -9.927)" fill="#fff"/>
      <path id="Path_238" data-name="Path 238" d="M5.944,35.493a2.935,2.935,0,1,1-2.936-2.936,2.936,2.936,0,0,1,2.936,2.936" transform="translate(-0.043 -18.989)" fill="#fff"/>
      <path id="Path_239" data-name="Path 239" d="M21.243,35.111a2.935,2.935,0,1,1-2.936-2.936,2.936,2.936,0,0,1,2.936,2.936" transform="translate(-8.966 -18.766)" fill="#fff"/>
      <path id="Path_240" data-name="Path 240" d="M21.171,19.956a2.935,2.935,0,1,1-2.936-2.936,2.936,2.936,0,0,1,2.936,2.936" transform="translate(-8.924 -9.927)" fill="#fff"/>
      <path id="Path_241" data-name="Path 241" d="M5.871,51.01a2.935,2.935,0,1,1-2.936-2.936A2.936,2.936,0,0,1,5.871,51.01" transform="translate(0 -28.04)" fill="#fff"/>
      <text id="_0075db" data-name="0075db" transform="translate(-105 -125)" fill="#707070" font-size="20" font-family="SegoeUI, Segoe UI"><tspan x="0" y="22">0075db</tspan></text>
      <text id="_1544e0" data-name="1544e0" transform="translate(-105 -125)" fill="#707070" font-size="20" font-family="SegoeUI, Segoe UI"><tspan x="0" y="22">1544e0</tspan></text>
    </g>
  </g>
</svg>
