<svg id="Group_601" data-name="Group 601" xmlns="http://www.w3.org/2000/svg" xmlns:xlink="http://www.w3.org/1999/xlink" width="1366" height="768" viewBox="0 0 1366 768">
  <defs>
    <clipPath id="clip-path">
      <rect width="62" height="76" fill="none"/>
    </clipPath>
  </defs>
  <rect id="Rectangle_340" data-name="Rectangle 340" width="1366" height="768" fill="#040e30"/>
  <g id="Group_600" data-name="Group 600">
    <g id="Repeat_Grid_6" data-name="Repeat Grid 6" transform="translate(926 596)" opacity="0.5" clip-path="url(#clip-path)">
      <g transform="translate(-290 55)">
        <circle id="Ellipse_2" data-name="Ellipse 2" cx="3" cy="3" r="3" transform="translate(290 -55)" fill="#0f3cd3"/>
      </g>
      <g transform="translate(-276 55)">
        <circle id="Ellipse_2-2" data-name="Ellipse 2" cx="3" cy="3" r="3" transform="translate(290 -55)" fill="#0f3cd3"/>
      </g>
      <g transform="translate(-262 55)">
        <circle id="Ellipse_2-3" data-name="Ellipse 2" cx="3" cy="3" r="3" transform="translate(290 -55)" fill="#0f3cd3"/>
      </g>
      <g transform="translate(-248 55)">
        <circle id="Ellipse_2-4" data-name="Ellipse 2" cx="3" cy="3" r="3" transform="translate(290 -55)" fill="#0f3cd3"/>
      </g>
      <g transform="translate(-234 55)">
        <circle id="Ellipse_2-5" data-name="Ellipse 2" cx="3" cy="3" r="3" transform="translate(290 -55)" fill="#0f3cd3"/>
      </g>
      <g transform="translate(-290 69)">
        <circle id="Ellipse_2-6" data-name="Ellipse 2" cx="3" cy="3" r="3" transform="translate(290 -55)" fill="#0f3cd3"/>
      </g>
      <g transform="translate(-276 69)">
        <circle id="Ellipse_2-7" data-name="Ellipse 2" cx="3" cy="3" r="3" transform="translate(290 -55)" fill="#0f3cd3"/>
      </g>
      <g transform="translate(-262 69)">
        <circle id="Ellipse_2-8" data-name="Ellipse 2" cx="3" cy="3" r="3" transform="translate(290 -55)" fill="#0f3cd3"/>
      </g>
      <g transform="translate(-248 69)">
        <circle id="Ellipse_2-9" data-name="Ellipse 2" cx="3" cy="3" r="3" transform="translate(290 -55)" fill="#0f3cd3"/>
      </g>
      <g transform="translate(-234 69)">
        <circle id="Ellipse_2-10" data-name="Ellipse 2" cx="3" cy="3" r="3" transform="translate(290 -55)" fill="#0f3cd3"/>
      </g>
      <g transform="translate(-290 83)">
        <circle id="Ellipse_2-11" data-name="Ellipse 2" cx="3" cy="3" r="3" transform="translate(290 -55)" fill="#0f3cd3"/>
      </g>
      <g transform="translate(-276 83)">
        <circle id="Ellipse_2-12" data-name="Ellipse 2" cx="3" cy="3" r="3" transform="translate(290 -55)" fill="#0f3cd3"/>
      </g>
      <g transform="translate(-262 83)">
        <circle id="Ellipse_2-13" data-name="Ellipse 2" cx="3" cy="3" r="3" transform="translate(290 -55)" fill="#0f3cd3"/>
      </g>
      <g transform="translate(-248 83)">
        <circle id="Ellipse_2-14" data-name="Ellipse 2" cx="3" cy="3" r="3" transform="translate(290 -55)" fill="#0f3cd3"/>
      </g>
      <g transform="translate(-234 83)">
        <circle id="Ellipse_2-15" data-name="Ellipse 2" cx="3" cy="3" r="3" transform="translate(290 -55)" fill="#0f3cd3"/>
      </g>
      <g transform="translate(-290 97)">
        <circle id="Ellipse_2-16" data-name="Ellipse 2" cx="3" cy="3" r="3" transform="translate(290 -55)" fill="#0f3cd3"/>
      </g>
      <g transform="translate(-276 97)">
        <circle id="Ellipse_2-17" data-name="Ellipse 2" cx="3" cy="3" r="3" transform="translate(290 -55)" fill="#0f3cd3"/>
      </g>
      <g transform="translate(-262 97)">
        <circle id="Ellipse_2-18" data-name="Ellipse 2" cx="3" cy="3" r="3" transform="translate(290 -55)" fill="#0f3cd3"/>
      </g>
      <g transform="translate(-248 97)">
        <circle id="Ellipse_2-19" data-name="Ellipse 2" cx="3" cy="3" r="3" transform="translate(290 -55)" fill="#0f3cd3"/>
      </g>
      <g transform="translate(-234 97)">
        <circle id="Ellipse_2-20" data-name="Ellipse 2" cx="3" cy="3" r="3" transform="translate(290 -55)" fill="#0f3cd3"/>
      </g>
      <g transform="translate(-290 111)">
        <circle id="Ellipse_2-21" data-name="Ellipse 2" cx="3" cy="3" r="3" transform="translate(290 -55)" fill="#0f3cd3"/>
      </g>
      <g transform="translate(-276 111)">
        <circle id="Ellipse_2-22" data-name="Ellipse 2" cx="3" cy="3" r="3" transform="translate(290 -55)" fill="#0f3cd3"/>
      </g>
      <g transform="translate(-262 111)">
        <circle id="Ellipse_2-23" data-name="Ellipse 2" cx="3" cy="3" r="3" transform="translate(290 -55)" fill="#0f3cd3"/>
      </g>
      <g transform="translate(-248 111)">
        <circle id="Ellipse_2-24" data-name="Ellipse 2" cx="3" cy="3" r="3" transform="translate(290 -55)" fill="#0f3cd3"/>
      </g>
      <g transform="translate(-234 111)">
        <circle id="Ellipse_2-25" data-name="Ellipse 2" cx="3" cy="3" r="3" transform="translate(290 -55)" fill="#0f3cd3"/>
      </g>
      <g transform="translate(-290 125)">
        <circle id="Ellipse_2-26" data-name="Ellipse 2" cx="3" cy="3" r="3" transform="translate(290 -55)" fill="#0f3cd3"/>
      </g>
      <g transform="translate(-276 125)">
        <circle id="Ellipse_2-27" data-name="Ellipse 2" cx="3" cy="3" r="3" transform="translate(290 -55)" fill="#0f3cd3"/>
      </g>
      <g transform="translate(-262 125)">
        <circle id="Ellipse_2-28" data-name="Ellipse 2" cx="3" cy="3" r="3" transform="translate(290 -55)" fill="#0f3cd3"/>
      </g>
      <g transform="translate(-248 125)">
        <circle id="Ellipse_2-29" data-name="Ellipse 2" cx="3" cy="3" r="3" transform="translate(290 -55)" fill="#0f3cd3"/>
      </g>
      <g transform="translate(-234 125)">
        <circle id="Ellipse_2-30" data-name="Ellipse 2" cx="3" cy="3" r="3" transform="translate(290 -55)" fill="#0f3cd3"/>
      </g>
    </g>
    <g id="Group_605" data-name="Group 605">
      <g id="Group_543" data-name="Group 543" transform="translate(612.766 -64.547) rotate(135)" opacity="0.42">
        <path id="Path_2" data-name="Path 2" d="M239-47h-5a1,1,0,0,1-1-1,1,1,0,0,1,1-1h5v-5a1,1,0,0,1,1-1,1,1,0,0,1,1,1v5h5a1,1,0,0,1,1,1,1,1,0,0,1-1,1h-5v5a1,1,0,0,1-1,1,1,1,0,0,1-1-1Z" fill="#305dfb" fill-rule="evenodd"/>
      </g>
      <g id="Group_544" data-name="Group 544" transform="translate(243 31)">
        <rect id="Rectangle_6" data-name="Rectangle 6" width="35" height="35" rx="7" transform="translate(153 118)" fill="#305dfb"/>
        <g id="Rectangle_5" data-name="Rectangle 5" transform="translate(174 135)" fill="none" stroke="#547aff" stroke-width="1">
          <rect width="35" height="35" rx="7" stroke="none"/>
          <rect x="0.5" y="0.5" width="34" height="34" rx="6.5" fill="none"/>
        </g>
      </g>
    </g>
  </g>
</svg>
