<svg xmlns="http://www.w3.org/2000/svg" xmlns:xlink="http://www.w3.org/1999/xlink" width="171.811" height="32.591" viewBox="0 0 171.811 32.591">
  <defs>
    <clipPath id="clip-path">
      <rect id="Rectangle_450" data-name="Rectangle 450" width="171.811" height="32.591" fill="none"/>
    </clipPath>
  </defs>
  <g id="Group_754" data-name="Group 754" transform="translate(0 0)">
    <g id="Group_744" data-name="Group 744" transform="translate(0 0)" clip-path="url(#clip-path)">
      <text id="equalsense" transform="translate(19.811 25.593)" font-size="28" font-family="Quicksand-Bold, Quicksand" font-weight="700"><tspan x="0" y="0">equalsense</tspan></text>
      <path id="Path_237" data-name="Path 237" d="M7.459,20.713A3.693,3.693,0,1,1,3.766,17.02a3.693,3.693,0,0,1,3.693,3.693" transform="translate(-0.035 -8.096)" fill="#1544e0"/>
      <path id="Path_238" data-name="Path 238" d="M7.459,36.25a3.693,3.693,0,1,1-3.693-3.693A3.693,3.693,0,0,1,7.459,36.25" transform="translate(-0.035 -15.487)" fill="#0075db"/>
      <path id="Path_239" data-name="Path 239" d="M22.758,35.868a3.693,3.693,0,1,1-3.693-3.693,3.693,3.693,0,0,1,3.693,3.693" transform="translate(-7.312 -15.306)" fill="#1544e0"/>
      <path id="Path_240" data-name="Path 240" d="M22.686,20.713a3.693,3.693,0,1,1-3.693-3.693,3.693,3.693,0,0,1,3.693,3.693" transform="translate(-7.278 -8.096)" fill="#0075db"/>
      <path id="Path_241" data-name="Path 241" d="M7.386,51.767a3.693,3.693,0,1,1-3.693-3.693,3.693,3.693,0,0,1,3.693,3.693" transform="translate(0 -22.869)" fill="#0075db"/>
    </g>
  </g>
</svg>
